<svg xmlns="http://www.w3.org/2000/svg" width="187.954" height="70.219" viewBox="0 0 187.954 70.219">
  <g id="Group_269" data-name="Group 269" transform="translate(-375 -90)">
    <g id="Group_119" data-name="Group 119" transform="translate(-441.635 -65.743)">
      <path id="Path_43" data-name="Path 43" d="M5196.22-243.485c-.019-.031,2,1.9,2,1.9s-12.346,12.135-14.667,20.049c-.21,0-13.4,5.8-4.537,21.209,0,0-1.755,6.245,0,11.336.025-.048-14.493-13.045-2.891-34.771C5176.134-223.79,5184.542-237.776,5196.22-243.485Z" transform="translate(-4355 406.446)" fill="#00adb5"/>
      <path id="Path_44" data-name="Path 44" d="M5193.65-175.307c-.105.063-2.889,7.621.739,11.67,0,.012,7.585,10.67,24.8,5.8.105.106,14.333-4.573,16.989-20.576,0,0,1.792-14.342-7.07-24.8-.105,0,6.121,12.873-4.326,24.27C5224.765-178.926,5211.412-164.943,5193.65-175.307Z" transform="translate(-4367.41 382.524)" fill="#00adb5"/>
      <path id="Path_45" data-name="Path 45" d="M5226.509-208.17c.008-.023,15.185-6.341,13.961-24.107.025-.008-1.218-13.474-17.775-28.977-.163,0,19.673,11.822,22.51,23.046C5245.2-238.209,5251.983-212.722,5226.509-208.17Z" transform="translate(-4385.326 417)" fill="#00adb5"/>
      <path id="Path_46" data-name="Path 46" d="M5203.952-164.741s0-2.2,0-2.2,6.818-1.786,7.468-6.25c0-.162.487-5.195-2.922-5.763,0,.244.486-.893,1.136-1.461,0-.162-1.136,0-1.136,0s0-5.844-5.683-7.468c0,0-9.409-2.048-13.23,5.195,0,.162-3.815,7.711,2.273,13.961C5191.858-168.731,5197.981-162.55,5203.952-164.741Z" transform="translate(-4364.96 373.583)" fill="#13bfb1"/>
      <path id="Path_47" data-name="Path 47" d="M5243.572-255.205s6.475-3.808,8.729-3.859a27.638,27.638,0,0,0-7.32,5.145Z" transform="translate(-4396.834 414.807)" fill="#00adb5"/>
      <text id="MEDIC" transform="translate(883.589 204.07)" fill="#00adb5" font-size="38" font-family="Raleway-ExtraBold, Raleway" font-weight="800"><tspan x="0" y="0">MEDIC</tspan></text>
      <path id="Icon_metro-heartbeat" data-name="Icon metro-heartbeat" d="M10.555,10h1.9a.633.633,0,0,1-.062.066q-.031.028-.056.047l-.019.025L8.435,13.876a.392.392,0,0,1-.549,0L3.993,10.121A.589.589,0,0,1,3.862,10h2.3a.393.393,0,0,0,.246-.084.375.375,0,0,0,.14-.215l.437-1.753L8.173,12.1a.4.4,0,0,0,.143.206.39.39,0,0,0,.243.081.381.381,0,0,0,.237-.081A.4.4,0,0,0,8.94,12.1l.911-3.025.349.7a.374.374,0,0,0,.356.218Zm3.194-2.67A3.391,3.391,0,0,1,13.107,9.2H10.8l-.692-1.379a.376.376,0,0,0-.159-.168.4.4,0,0,0-.577.237l-.8,2.682L7.349,6.291A.392.392,0,0,0,7.2,6.085.4.4,0,0,0,6.956,6a.39.39,0,0,0-.381.3L5.852,9.2H3.213a3.391,3.391,0,0,1-.643-1.871A2.861,2.861,0,0,1,3.363,5.18a3,3,0,0,1,2.19-.774,2.486,2.486,0,0,1,.789.134A3.194,3.194,0,0,1,7.09,4.9q.346.228.6.427a5.753,5.753,0,0,1,.474.424,5.746,5.746,0,0,1,.474-.424q.25-.2.6-.427a3.194,3.194,0,0,1,.749-.362,2.486,2.486,0,0,1,.789-.134,3,3,0,0,1,2.19.774,2.861,2.861,0,0,1,.792,2.146Z" transform="translate(835.283 209.485)" fill="#00adb5"/>
    </g>
  </g>
</svg>
